<svg xmlns="http://www.w3.org/2000/svg" viewBox="0 0 474 474" width="40" height="40">
	<style>
		tspan { white-space:pre }
		.shp0 { fill: #000000 } 
	</style>
	<path id="Layer" fill-rule="evenodd" class="shp0" d="M405.62 242.96C405.58 243.01 405.54 243.06 405.5 243.1C405.3 243.33 405.09 243.54 404.87 243.75C404.81 243.8 404.76 243.86 404.7 243.91C404.44 244.13 404.17 244.34 403.88 244.53C403.83 244.57 403.78 244.59 403.74 244.62C403.49 244.78 403.24 244.92 402.97 245.05C402.88 245.09 402.8 245.13 402.71 245.17C402.64 245.2 402.58 245.24 402.51 245.26L287.83 292.77C286.83 293.18 285.8 293.38 284.78 293.38C284.75 293.38 284.73 293.37 284.7 293.37C284.39 293.37 284.07 293.34 283.75 293.3C283.66 293.29 283.56 293.27 283.47 293.26C283.15 293.21 282.84 293.14 282.53 293.05C282.51 293.04 282.49 293.04 282.47 293.03C282.21 292.96 281.96 292.87 281.71 292.76L245.11 277.6L245.11 466C245.11 470.42 241.53 474 237.11 474C232.69 474 229.11 470.42 229.11 466L229.11 270.98L207.59 262.06L176.98 335.97C176.84 336.3 176.67 336.63 176.48 336.95C176.44 337.02 176.4 337.09 176.36 337.16C176.17 337.45 175.97 337.74 175.75 338C175.71 338.05 175.67 338.09 175.63 338.14C175.44 338.37 175.23 338.58 175.01 338.79C174.95 338.84 174.89 338.89 174.83 338.95C174.57 339.17 174.3 339.38 174.01 339.57C173.96 339.6 173.92 339.63 173.87 339.66C173.62 339.81 173.37 339.96 173.1 340.09C173.02 340.13 172.93 340.17 172.84 340.21C172.78 340.24 172.72 340.27 172.65 340.3C172.39 340.41 172.14 340.5 171.88 340.57C171.88 340.57 171.88 340.58 171.88 340.58C171.54 340.68 171.2 340.75 170.87 340.8C170.79 340.81 170.71 340.83 170.63 340.84C170.28 340.88 169.93 340.91 169.59 340.91C169.59 340.91 169.59 340.91 169.59 340.91C169.58 340.91 169.58 340.91 169.58 340.91C169.24 340.91 168.89 340.88 168.54 340.84C168.46 340.83 168.38 340.81 168.3 340.8C167.97 340.75 167.63 340.68 167.3 340.58C167.29 340.58 167.29 340.58 167.29 340.57C167.03 340.5 166.78 340.41 166.52 340.3C166.46 340.27 166.39 340.24 166.33 340.21C166.24 340.17 166.15 340.13 166.06 340.08C165.8 339.96 165.55 339.82 165.31 339.66C165.26 339.63 165.21 339.6 165.16 339.57C164.87 339.38 164.6 339.17 164.34 338.95C164.28 338.89 164.22 338.84 164.16 338.78C163.94 338.58 163.74 338.37 163.54 338.14C163.5 338.09 163.46 338.05 163.42 338C163.2 337.73 163 337.45 162.81 337.16C162.77 337.09 162.73 337.02 162.69 336.95C162.5 336.63 162.33 336.3 162.19 335.96L114.69 221.29C114.59 221.05 114.5 220.79 114.42 220.54C114.37 220.36 114.33 220.18 114.29 220C114.27 219.93 114.25 219.85 114.23 219.78C114.19 219.55 114.16 219.33 114.13 219.11C114.13 219.07 114.12 219.04 114.12 219.01C114.1 218.77 114.09 218.54 114.09 218.31C114.09 218.28 114.08 218.25 114.08 218.22C114.08 218 114.1 217.78 114.12 217.56C114.12 217.52 114.12 217.48 114.12 217.44C114.14 217.23 114.18 217.03 114.21 216.82C114.22 216.77 114.23 216.72 114.24 216.67C114.28 216.46 114.33 216.26 114.39 216.06C114.4 216.01 114.41 215.96 114.43 215.91C114.5 215.65 114.59 215.41 114.69 215.16L145.39 141.05L71.48 110.43C71.41 110.4 71.35 110.37 71.29 110.34C71.2 110.3 71.11 110.26 71.02 110.21C70.76 110.08 70.51 109.94 70.27 109.79C70.22 109.76 70.17 109.73 70.12 109.7C69.83 109.51 69.56 109.3 69.3 109.08C69.24 109.02 69.18 108.97 69.12 108.91C68.9 108.71 68.7 108.5 68.5 108.27C68.46 108.22 68.42 108.18 68.38 108.13C68.16 107.86 67.96 107.58 67.77 107.29C67.73 107.22 67.69 107.15 67.65 107.08C67.33 106.53 67.07 105.96 66.89 105.35C66.86 105.25 66.84 105.15 66.81 105.04C66.77 104.89 66.73 104.75 66.7 104.6C66.67 104.47 66.66 104.34 66.64 104.21C66.62 104.08 66.6 103.95 66.58 103.82C66.57 103.69 66.57 103.56 66.56 103.42C66.56 103.3 66.55 103.17 66.55 103.04C66.55 102.91 66.56 102.78 66.56 102.65C66.57 102.52 66.57 102.39 66.58 102.26C66.6 102.13 66.62 102 66.64 101.87C66.66 101.74 66.67 101.61 66.7 101.48C66.73 101.33 66.77 101.18 66.81 101.03C66.84 100.93 66.86 100.83 66.89 100.72C67.04 100.22 67.24 99.73 67.49 99.26C67.55 99.16 67.61 99.07 67.67 98.97C67.74 98.84 67.81 98.71 67.9 98.59C67.97 98.48 68.05 98.37 68.13 98.27C68.21 98.16 68.28 98.06 68.36 97.96C68.45 97.86 68.54 97.76 68.63 97.66C68.72 97.57 68.8 97.47 68.89 97.38C68.98 97.29 69.08 97.21 69.17 97.12C69.27 97.03 69.37 96.94 69.47 96.85C69.57 96.77 69.67 96.7 69.77 96.63C69.88 96.55 69.99 96.46 70.1 96.39C70.22 96.31 70.35 96.24 70.47 96.16C70.57 96.1 70.67 96.04 70.77 95.99C71 95.86 71.24 95.75 71.49 95.65L186.16 48.15C186.41 48.04 186.66 47.95 186.91 47.88C187.12 47.81 187.33 47.77 187.54 47.72C187.59 47.71 187.63 47.7 187.68 47.69C187.92 47.64 188.16 47.61 188.4 47.58C188.42 47.58 188.43 47.58 188.45 47.57C188.69 47.55 188.93 47.54 189.18 47.54C189.19 47.54 189.21 47.54 189.23 47.54C189.46 47.54 189.69 47.55 189.91 47.57C189.95 47.57 189.98 47.57 190.01 47.58C190.22 47.6 190.43 47.63 190.64 47.67C190.69 47.68 190.74 47.68 190.79 47.69C190.99 47.73 191.19 47.78 191.39 47.84C191.44 47.86 191.49 47.87 191.55 47.88C191.8 47.96 192.05 48.05 192.29 48.15L266.41 78.85L297.02 4.94C297.12 4.7 297.24 4.46 297.36 4.22C297.41 4.12 297.47 4.03 297.53 3.94C297.61 3.81 297.68 3.68 297.76 3.55C297.84 3.44 297.92 3.34 298 3.23C298.07 3.13 298.15 3.02 298.23 2.92C298.31 2.82 298.4 2.72 298.49 2.63C298.58 2.53 298.67 2.43 298.76 2.34C298.85 2.25 298.94 2.17 299.03 2.08C299.14 1.99 299.23 1.9 299.34 1.81C299.44 1.73 299.54 1.66 299.63 1.59C299.75 1.51 299.85 1.42 299.97 1.35C300.09 1.27 300.21 1.2 300.33 1.13C300.43 1.07 300.53 1 300.64 0.95C300.86 0.82 301.09 0.72 301.33 0.62C301.34 0.61 301.34 0.61 301.35 0.61L301.35 0.61C301.6 0.51 301.85 0.42 302.1 0.34C302.21 0.31 302.32 0.29 302.44 0.26C302.58 0.22 302.72 0.18 302.86 0.15C302.99 0.13 303.12 0.11 303.25 0.09C303.38 0.07 303.5 0.05 303.63 0.04C303.76 0.03 303.9 0.02 304.03 0.02C304.16 0.01 304.29 0 304.42 0C304.54 0 304.66 0.01 304.79 0.02C304.92 0.02 305.06 0.03 305.2 0.04C305.32 0.05 305.44 0.07 305.55 0.09C305.69 0.11 305.83 0.13 305.97 0.15C306.11 0.18 306.24 0.22 306.37 0.25C306.49 0.28 306.61 0.31 306.73 0.34C307.24 0.5 307.73 0.7 308.19 0.95C308.29 1 308.39 1.06 308.48 1.12C308.61 1.2 308.74 1.27 308.86 1.35C308.97 1.42 309.07 1.51 309.18 1.59C309.28 1.66 309.39 1.74 309.49 1.82C309.59 1.9 309.69 1.99 309.78 2.08C309.88 2.17 309.98 2.25 310.07 2.34C310.16 2.43 310.24 2.53 310.32 2.62C310.42 2.72 310.51 2.82 310.6 2.93C310.68 3.02 310.75 3.12 310.82 3.22C310.9 3.33 310.99 3.44 311.06 3.55C311.14 3.67 311.22 3.8 311.29 3.93C311.35 4.03 311.41 4.12 311.46 4.22C311.59 4.46 311.71 4.7 311.81 4.95L359.3 119.62C359.41 119.87 359.5 120.12 359.57 120.37C359.63 120.55 359.67 120.73 359.71 120.91C359.73 120.98 359.75 121.06 359.76 121.13C359.81 121.36 359.84 121.58 359.86 121.81C359.87 121.84 359.87 121.87 359.88 121.91C359.9 122.14 359.91 122.37 359.91 122.6C359.91 122.63 359.91 122.66 359.91 122.69C359.91 122.91 359.9 123.13 359.88 123.36C359.88 123.39 359.88 123.43 359.87 123.47C359.85 123.68 359.82 123.88 359.78 124.09C359.77 124.14 359.77 124.19 359.76 124.24C359.72 124.45 359.66 124.65 359.61 124.85C359.59 124.9 359.58 124.95 359.57 125C359.49 125.26 359.4 125.51 359.3 125.75L328.6 199.86L402.51 230.48C402.75 230.58 402.99 230.69 403.23 230.82C403.33 230.87 403.43 230.93 403.52 230.99C403.65 231.07 403.78 231.14 403.9 231.22C404.01 231.29 404.12 231.38 404.23 231.46C404.33 231.53 404.43 231.6 404.53 231.68C404.63 231.77 404.73 231.86 404.83 231.96C404.92 232.04 405.02 232.12 405.11 232.21C405.2 232.3 405.29 232.4 405.37 232.5C405.46 232.6 405.55 232.69 405.63 232.79C405.72 232.89 405.79 233 405.87 233.1C405.95 233.21 406.03 233.31 406.1 233.42C406.19 233.55 406.26 233.68 406.34 233.81C406.39 233.9 406.45 233.99 406.5 234.09C406.75 234.56 406.96 235.05 407.11 235.55C407.14 235.66 407.16 235.76 407.19 235.86C407.23 236.01 407.27 236.16 407.3 236.31C407.32 236.44 407.34 236.57 407.36 236.7C407.38 236.83 407.4 236.96 407.41 237.08C407.43 237.22 407.43 237.35 407.44 237.48C407.44 237.61 407.45 237.74 407.45 237.87C407.45 238 407.44 238.12 407.44 238.25C407.43 238.38 407.43 238.52 407.41 238.65C407.4 238.78 407.38 238.91 407.36 239.03C407.34 239.16 407.32 239.29 407.3 239.42C407.27 239.57 407.23 239.72 407.19 239.87C407.16 239.97 407.14 240.08 407.11 240.18C406.93 240.78 406.67 241.36 406.35 241.9C406.31 241.97 406.27 242.04 406.22 242.11C406.04 242.41 405.84 242.69 405.62 242.96ZM313.82 193.74L337.14 137.46L301.41 152.26C300.41 152.67 299.37 152.87 298.35 152.87C295.21 152.87 292.23 151.01 290.96 147.93C289.26 143.85 291.2 139.17 295.29 137.48L341.46 118.35L304.41 28.9L259.52 137.28C265.89 141.62 270.88 147.71 273.89 155C276.97 162.43 277.73 170.43 276.17 178.14L313.82 193.74ZM236.93 194.31C246.67 194.31 255.38 188.49 259.11 179.49C261.56 173.56 261.56 167.04 259.11 161.12C256.66 155.2 252.04 150.58 246.12 148.13C243.18 146.91 240.1 146.3 236.95 146.3C227.2 146.3 218.49 152.11 214.76 161.12C212.31 167.04 212.31 173.56 214.76 179.49C217.22 185.41 221.83 190.02 227.75 192.48C230.69 193.69 233.78 194.31 236.93 194.31ZM260.29 93.63L204.01 70.32L218.81 106.04C220.5 110.12 218.56 114.8 214.48 116.49C213.47 116.91 212.44 117.11 211.42 117.11C208.28 117.11 205.3 115.25 204.02 112.17L184.9 65.99L95.45 103.04L203.79 147.91C211.12 137.01 223.43 130.29 236.95 130.29C239.59 130.29 242.21 130.56 244.78 131.07L260.29 93.63ZM160.17 147.17L136.86 203.45L172.59 188.65C176.67 186.96 181.35 188.9 183.04 192.98C184.73 197.06 182.79 201.74 178.71 203.43L132.53 222.56L169.58 312L214.54 203.46C208.08 199.11 203.03 192.97 199.98 185.61C196.93 178.25 196.16 170.34 197.66 162.69L160.17 147.17ZM213.72 247.28L269.99 270.59L255.2 234.86C253.5 230.78 255.44 226.1 259.53 224.41C263.61 222.72 268.29 224.66 269.98 228.74L289.1 274.92L378.55 237.87L269.96 192.89C262.61 203.67 250.36 210.31 236.93 210.31C234.36 210.31 231.82 210.06 229.33 209.58L213.72 247.28Z" />
	<g id="Layer">
	</g>
	<g id="Layer">
	</g>
	<g id="Layer">
	</g>
	<g id="Layer">
	</g>
	<g id="Layer">
	</g>
	<g id="Layer">
	</g>
	<g id="Layer">
	</g>
	<g id="Layer">
	</g>
	<g id="Layer">
	</g>
	<g id="Layer">
	</g>
	<g id="Layer">
	</g>
	<g id="Layer">
	</g>
	<g id="Layer">
	</g>
	<g id="Layer">
	</g>
	<g id="Layer">
	</g>
</svg>